HIERARCHY
ROOT Hips
{
	OFFSET -0.179506 -22.333345 2.821913
	CHANNELS 6 Xposition Yposition Zposition Zrotation Yrotation Xrotation 
	JOINT LeftUpLeg
	{
		OFFSET 6.951974 -9.140623 -0.681533
		CHANNELS 3 Zrotation Yrotation Xrotation
		JOINT LeftLeg
		{
			OFFSET 3.427654 -37.519855 -0.449580
			CHANNELS 3 Zrotation Yrotation Xrotation
			JOINT LeftFoot
			{
				OFFSET -1.359570 -39.796059 -4.369333
				CHANNELS 3 Zrotation Yrotation Xrotation
				JOINT LeftToe
				{
					OFFSET 2.635814 -5.579078 11.928840
					CHANNELS 3 Zrotation Yrotation Xrotation
					End Site
					{
						OFFSET 0.000000 0.000000 0.000000
					}
				}
			}
		}
	}
	JOINT RightUpLeg
	{
		OFFSET -6.767048 -9.052170 -0.431982
		CHANNELS 3 Zrotation Yrotation Xrotation
		JOINT RightLeg
		{
			OFFSET -3.829005 -38.256897 -0.885003
			CHANNELS 3 Zrotation Yrotation Xrotation
			JOINT RightFoot
			{
				OFFSET 1.577377 -39.841461 -4.231180
				CHANNELS 3 Zrotation Yrotation Xrotation
				JOINT RightToe
				{
					OFFSET -2.537174 -4.814398 12.334795
					CHANNELS 3 Zrotation Yrotation Xrotation
					End Site
					{
						OFFSET 0.000000 0.000000 0.000000
					}
				}
			}
		}
	}
	JOINT Spine
	{
		OFFSET -0.253288 10.896323 -2.669631
		CHANNELS 3 Zrotation Yrotation Xrotation
		JOINT Spine1
		{
			OFFSET 0.548704 13.518043 0.109247
			CHANNELS 3 Zrotation Yrotation Xrotation
			JOINT Spine2
			{
				OFFSET 0.145701 5.292222 2.542457
				CHANNELS 3 Zrotation Yrotation Xrotation
				JOINT Neck
				{
					OFFSET -0.277840 21.387037 -4.285703
					CHANNELS 3 Zrotation Yrotation Xrotation
					JOINT Head
					{
						OFFSET 0.515184 6.496960 5.134897
						CHANNELS 3 Zrotation Yrotation Xrotation
						End Site
						{
							OFFSET 0.000000 0.000000 0.000000
						}
					}
				}
				JOINT LeftShoulder
				{
					OFFSET 7.884473 12.174932 -3.408961
					CHANNELS 3 Zrotation Yrotation Xrotation
					JOINT LeftArm
					{
						OFFSET 9.097692 3.046888 -0.886815
						CHANNELS 3 Zrotation Yrotation Xrotation
						JOINT LeftForeArm
						{
							OFFSET 25.961220 -1.277207 -2.745643
							CHANNELS 3 Zrotation Yrotation Xrotation
							JOINT LeftHand
							{
								OFFSET 24.923361 0.898606 -0.117091
								CHANNELS 3 Zrotation Yrotation Xrotation
								End Site
								{
									OFFSET 0.000000 0.000000 0.000000
								}
							}
						}
					}
				}
				JOINT RightShoulder
				{
					OFFSET -8.175920 11.883285 -3.861528
					CHANNELS 3 Zrotation Yrotation Xrotation
					JOINT RightArm
					{
						OFFSET -9.601238 3.255117 -0.914307
						CHANNELS 3 Zrotation Yrotation Xrotation
						JOINT RightForeArm
						{
							OFFSET -25.374195 -1.332924 -2.140099
							CHANNELS 3 Zrotation Yrotation Xrotation
							JOINT RightHand
							{
								OFFSET -25.529810 0.777228 -0.555919
								CHANNELS 3 Zrotation Yrotation Xrotation
								End Site
								{
									OFFSET 0.000000 0.000000 0.000000
								}
							}
						}
					}
				}
			}
		}
	}
}
MOTION
Frames: 17
Frame Time: 0.033333
-9.257447 92.526703 21.882685 -76.706731 -10.479132 -20.031969 25.643852 10.612158 -25.781304 -9.525353 4.157114 21.736554 -11.849586 -5.012512 -13.816095 4.031039 0.496265 -1.188357 -22.140284 -14.053232 -6.829582 5.831479 -4.292450 25.311414 6.887789 -2.476461 11.524190 7.823498 -0.878612 0.582872 -5.845990 4.749478 18.991107 -2.834358 -1.178516 7.396071 2.246288 -1.797014 -3.234297 -2.729324 -3.117025 0.965178 13.940508 -1.803016 -13.475167 -22.931940 -1.102917 8.278164 -29.340369 -0.115050 10.025361 -33.133045 -59.824368 27.976346 0.942796 -12.741281 -16.218975 10.775225 4.364453 5.834685 38.341229 -4.976973 19.821028 43.689970 51.867947 50.242472 3.011890 7.475198 -5.400852 
-10.591557 92.764526 25.755522 -76.744491 -5.656464 -19.212190 26.019817 10.920118 -25.804372 -11.390432 3.779060 21.609439 -10.320830 -8.836634 -23.329196 4.400696 0.516777 -1.270468 -23.156508 -14.669818 -8.662411 6.274110 -5.261912 30.999174 6.065005 -2.492856 10.263857 7.935646 -0.895544 0.535384 -5.892343 4.580395 19.124496 -2.904264 -1.044119 7.413988 2.094735 -1.861611 -3.238246 -2.708621 -2.272922 1.134514 13.663380 -1.330499 -12.898627 -22.182519 0.301943 8.851519 -28.503987 1.577198 9.608381 -32.912149 -60.063330 27.028377 1.291259 -12.329819 -16.448447 11.052305 4.319463 5.571723 37.660107 -4.843763 19.368329 44.068112 52.587964 50.385273 3.169969 7.607922 -6.141649 
-12.298713 93.027977 27.875860 -75.818474 -3.709095 -18.881977 26.707807 11.440878 -25.699620 -12.124190 3.758427 21.875761 -8.492493 -9.458463 -29.185333 4.755273 0.435717 -1.357225 -23.688952 -15.013304 -10.586880 6.532363 -6.359607 35.856312 5.083338 -3.183953 9.336533 8.087537 -0.897702 0.592481 -5.874594 4.335352 19.790244 -3.029202 -0.971470 7.205215 2.008032 -2.100166 -3.425042 -2.725912 -1.794888 1.440629 13.415993 -1.237240 -12.070781 -21.163820 1.427125 9.153652 -26.960201 2.850761 9.098527 -30.814473 -58.759781 24.165662 1.597399 -12.273162 -17.159182 10.878005 4.752767 4.796884 37.121424 -4.556431 19.255535 44.898435 53.087014 50.956222 3.358566 7.859178 -6.847877 
-14.123631 93.311745 31.276068 -75.268193 -0.477648 -18.298325 27.267168 12.114857 -25.329553 -13.363129 3.491834 21.697918 -5.442991 -11.037835 -37.987622 5.317533 0.348097 -1.388388 -24.992272 -15.898417 -13.195882 7.091842 -7.604343 43.217131 3.483657 -3.142082 7.295426 8.189743 -0.773750 0.603872 -5.625973 3.989272 20.525033 -3.128394 -0.882173 7.518144 1.652091 -2.054166 -3.961512 -2.714658 -1.262574 2.169735 13.200023 -1.008859 -11.355834 -20.653829 2.252204 9.402602 -24.646276 4.200831 8.553676 -26.336618 -55.523607 18.976957 1.767847 -11.929036 -17.237638 11.362276 4.686431 4.865443 35.487175 -5.101403 18.937816 47.385259 53.823736 52.628416 3.309777 8.471450 -6.879689 
-15.428361 93.649818 31.955799 -74.745526 0.096442 -18.772585 28.234404 12.464659 -24.746640 -13.165212 2.665512 21.484308 -5.016854 -10.827925 -39.085266 5.511354 0.262426 -1.460068 -25.551419 -16.250710 -15.330242 7.488579 -8.708886 47.968813 2.045384 -3.625521 5.388104 8.175513 -0.728573 0.546001 -5.635195 3.651108 21.251478 -3.289732 -0.693733 7.560310 1.435746 -2.161716 -4.104269 -2.888850 -0.938154 2.114009 12.862561 -1.378576 -11.170807 -20.317141 1.802976 9.154514 -22.538454 4.684639 7.810286 -21.642923 -50.708704 13.860001 1.750221 -11.728355 -17.409310 11.834619 5.043961 4.707458 34.240364 -5.391355 18.702601 48.412606 54.706561 53.297375 3.362748 8.878477 -6.974881 
-16.973833 94.029457 32.898361 -74.321677 1.126258 -19.337906 29.070255 12.831767 -23.787905 -12.978725 1.848458 20.428860 -3.434069 -10.824407 -41.434803 5.875741 0.171732 -1.528203 -26.597063 -16.895457 -17.462399 7.640940 -9.775683 53.238378 0.861016 -4.286696 3.420336 8.224007 -0.728875 0.734777 -5.673157 3.471651 21.925147 -3.460745 -0.580484 7.848666 1.154190 -2.218426 -3.938674 -2.949736 -0.120057 2.333578 12.314387 -1.540176 -10.650577 -19.894980 1.232891 8.941592 -20.637321 4.646704 6.911006 -18.659355 -45.632645 10.155943 1.175291 -11.518938 -17.380521 12.162825 5.257289 4.588569 33.596576 -5.873368 18.434437 49.187764 55.480484 53.899002 4.017131 8.978194 -7.061312 
-19.101267 94.409744 33.028248 -73.854923 1.907537 -20.309171 30.145560 13.281939 -22.427358 -13.202007 1.221331 17.880596 -2.477073 -10.342567 -43.092371 6.408173 0.017569 -1.650160 -27.667291 -17.910004 -19.777846 7.785549 -10.948667 59.102835 0.001541 -4.132213 2.218732 8.236170 -0.775943 0.698705 -5.554404 3.314719 22.858172 -3.599259 -0.557660 8.094606 0.952620 -2.255396 -4.145778 -3.058942 1.050131 2.669278 11.861914 -1.284012 -9.876232 -19.677387 0.572736 8.925567 -18.935336 4.959009 6.191686 -16.712709 -42.429720 8.418565 0.796418 -11.385168 -17.340165 12.644428 5.613548 4.610221 32.295040 -5.742852 18.115083 50.558244 55.593989 55.342553 4.627918 8.908732 -7.052066 
-21.132092 94.795158 33.592728 -73.005340 2.280558 -20.804060 30.943911 13.465459 -21.882496 -13.228126 0.605721 17.273295 -1.021069 -8.636447 -45.387663 6.927387 -0.151793 -1.827933 -28.505582 -18.681207 -22.213769 7.851851 -11.649884 64.337040 -0.799923 -4.098076 1.176797 8.260340 -0.673160 0.637367 -5.341006 2.900545 23.741401 -3.700696 -0.326532 8.119226 0.696754 -2.333069 -4.401341 -3.120083 1.605315 2.935367 11.489707 -1.348918 -9.014843 -19.896222 0.469180 9.069760 -17.828274 5.218110 5.656281 -15.627641 -38.912839 6.814640 0.866815 -11.373860 -17.936924 12.928859 5.672782 4.898825 30.997062 -6.050677 17.894385 52.014973 55.680657 56.725273 5.380783 9.372372 -7.253684 
-23.482981 95.205612 33.643345 -72.092358 2.328592 -21.892423 31.958822 13.804486 -21.013705 -13.150174 0.009474 16.535231 -0.089620 -6.884275 -46.703030 7.537294 -0.276133 -1.977161 -29.062254 -19.315663 -24.855494 7.623862 -12.376037 69.830740 -1.797318 -4.293743 0.261987 8.322805 -0.724775 0.287400 -5.164847 2.372539 24.312017 -3.935820 -0.135814 7.938696 0.479663 -2.431992 -4.437488 -3.335151 2.191288 2.994351 10.908159 -0.722982 -8.614425 -19.696140 0.493469 8.981682 -17.362462 5.641154 5.244420 -15.055718 -36.558613 5.564241 1.175390 -11.093332 -18.484561 12.397382 5.609562 4.732207 30.904245 -5.882772 17.910462 52.060160 55.655084 56.908669 6.165955 9.419515 -7.349513 
-25.918377 95.663551 34.972855 -71.308808 3.498639 -22.383050 33.022059 14.236449 -20.391811 -13.225378 -0.768838 15.708640 0.838906 -5.794752 -49.213398 7.746760 -0.366706 -2.061953 -29.692117 -20.135610 -26.815354 7.865047 -13.305693 74.430837 -2.726846 -4.170074 -1.522344 8.352211 -0.690113 0.114503 -5.047811 2.053453 24.598025 -3.944895 -0.057040 8.079923 0.350176 -2.442445 -4.550953 -3.250238 3.085536 3.332508 10.458628 -0.468384 -8.133243 -19.934516 0.584387 8.940872 -16.795193 5.871390 4.953921 -14.784774 -34.801645 4.587944 0.461990 -10.935478 -18.133146 12.564208 5.301460 4.748218 30.030002 -5.925008 17.718890 52.400097 55.577976 56.832233 6.943227 9.478395 -7.731266 
-27.801416 96.149414 37.158279 -70.784621 4.895344 -22.256065 34.262757 15.131549 -20.090920 -13.273232 -1.353071 15.766312 1.492953 -4.598523 -50.435823 8.152582 -0.486053 -2.304456 -30.117752 -20.918244 -29.424935 8.014047 -13.761383 79.770892 -3.516398 -4.294861 -3.013767 8.688792 -0.556493 0.112934 -4.971022 1.625272 25.405153 -4.035004 -0.094896 8.008387 0.250154 -2.637008 -4.747767 -3.183036 3.397999 3.450650 10.399097 -0.681606 -7.757205 -20.202825 0.548957 9.004106 -16.385951 6.463822 4.501906 -14.635389 -33.124522 4.103888 0.304875 -11.028228 -17.536424 12.582377 5.423797 4.766847 28.955287 -6.046734 17.274361 53.091635 55.759304 57.347317 7.406099 9.660998 -7.478880 
-30.124838 96.672859 38.277927 -69.787556 5.352412 -23.054418 35.600756 15.908029 -19.593386 -13.051259 -2.205024 16.609958 1.790801 -2.650975 -49.584588 8.250303 -0.515416 -2.453515 -30.704019 -21.841530 -32.032113 8.383668 -14.188085 84.426056 -4.239180 -4.143792 -3.720431 8.826174 -0.402265 0.040123 -4.792414 1.053836 26.254545 -4.111611 0.071898 8.078897 0.036418 -2.845515 -5.031175 -3.296180 3.415940 3.706945 10.076954 -1.043942 -7.647601 -20.524747 0.383251 9.147494 -16.161191 6.501631 3.850502 -14.256682 -31.217091 3.650619 0.376413 -10.857898 -16.694258 12.713935 5.558932 5.001831 28.076395 -6.247076 16.612146 53.290176 55.870502 57.645367 8.158701 10.053282 -7.339731 
-31.981047 97.248833 39.114265 -69.151704 5.903924 -23.456978 36.564748 16.126722 -19.013895 -11.876073 -2.929256 15.793220 1.354421 -0.454721 -46.535263 8.621783 -0.622849 -2.566035 -30.700938 -22.262999 -34.536443 8.203709 -14.455591 88.643894 -5.368338 -4.597557 -4.461943 9.029061 -0.343342 -0.035364 -4.537721 0.488382 26.967799 -4.135088 0.157457 8.058601 -0.172033 -2.965908 -5.238141 -3.416955 3.735090 3.714781 9.677342 -1.088118 -7.328394 -20.521174 0.010651 9.049060 -16.241602 6.461033 3.679747 -13.959134 -29.966932 2.933589 0.208494 -10.818178 -16.714587 12.563638 5.854087 4.923194 27.141248 -6.255706 16.448071 53.817912 55.834354 58.036060 9.194548 10.329597 -7.109831 
-34.530750 97.805779 40.245548 -68.406381 7.152959 -24.195353 37.683282 16.640114 -18.408788 -11.066176 -3.809883 14.615817 0.557475 1.307228 -43.231311 8.990237 -0.749093 -2.713313 -31.121593 -22.956229 -36.492989 8.546567 -14.618801 92.750793 -6.239293 -4.552265 -6.363150 9.167499 -0.386860 -0.198607 -4.214228 0.094854 27.818123 -4.086832 0.168115 8.160115 -0.398225 -2.920335 -5.547056 -3.518062 4.077370 3.779050 9.493997 -1.099541 -7.268937 -20.624119 -0.435243 8.909621 -16.230987 6.422541 3.208011 -13.691970 -29.221759 2.820573 0.302555 -10.622867 -15.960567 12.522589 6.021130 4.817234 25.955688 -6.094810 15.938030 54.188249 55.635609 58.386670 9.843119 10.377137 -6.563367 
-36.668194 98.357872 41.481270 -67.510267 7.698651 -24.381776 38.760178 16.917398 -18.117023 -9.988724 -4.599042 14.517408 -0.247758 3.121367 -39.275743 9.267152 -0.889223 -2.888269 -31.088445 -23.558292 -38.888385 8.500312 -15.158637 96.446254 -6.752339 -4.499542 -7.538042 9.341393 -0.327989 -0.094604 -4.119166 -0.344648 28.783167 -4.122753 0.154500 7.913080 -0.555331 -3.105155 -5.750917 -3.570156 4.141697 3.513924 9.223791 -1.435440 -7.192824 -20.710535 -0.596167 8.996535 -16.034198 6.560975 2.978043 -13.737805 -28.503332 2.884135 0.452668 -10.451576 -15.202123 12.255556 6.273251 4.666775 24.914846 -5.939343 15.611374 55.013150 55.314785 59.207717 10.243635 10.467312 -6.468777 
-38.648628 98.856468 42.193230 -66.782912 8.083138 -25.041463 39.809613 17.381610 -17.812490 -9.272341 -5.201098 14.656990 -1.173562 4.208464 -34.993609 9.330694 -0.864558 -2.991461 -31.105187 -24.006627 -41.052551 8.924018 -15.470873 99.294636 -7.516216 -4.969103 -8.814482 9.426362 -0.315615 -0.090956 -4.109835 -0.730354 30.297425 -4.133023 0.157039 7.746312 -0.770674 -3.256393 -6.012119 -3.636166 3.985004 2.714910 9.000039 -2.399038 -7.343019 -20.812081 -1.049265 8.932034 -15.479444 6.576730 2.826883 -13.463726 -27.573901 2.516248 1.831766 -10.048433 -14.530389 12.332059 6.779783 4.369257 23.740721 -5.833430 15.513340 56.987939 55.810217 61.185616 9.379281 10.747392 -6.436610 
-40.558468 99.316063 43.076744 -66.255898 8.728675 -25.336612 40.605326 17.762896 -17.997473 -8.380876 -5.729942 14.797548 -2.141616 4.442289 -31.848663 9.356563 -0.888946 -3.093084 -31.181703 -24.619783 -43.073938 9.135739 -16.099990 101.958177 -8.095556 -4.937729 -10.218409 9.544392 -0.370796 -0.234368 -3.990348 -1.090812 31.209808 -4.133764 0.131197 7.650803 -0.934427 -3.291616 -6.202360 -3.710789 4.261659 2.561941 8.975775 -2.822097 -7.501524 -20.958372 -1.516884 8.951478 -15.064251 6.281617 2.743072 -13.327034 -27.198185 2.634230 2.111577 -10.453694 -13.984015 12.347124 6.938883 4.293788 22.846222 -5.777886 15.219346 58.509334 55.864292 62.741295 9.486957 11.430771 -6.517754 
